<svg xmlns="http://www.w3.org/2000/svg" xmlns:xlink="http://www.w3.org/1999/xlink" version="1.1" width="256" height="256" viewBox="0 0 256 256" xml:space="preserve">
<desc>Created with Fabric.js 1.7.22</desc>
<defs>
</defs>
<g transform="translate(128 128) scale(0.72 0.72)" style="">
	<g style="stroke: none; stroke-width: 0; stroke-dasharray: none; stroke-linecap: butt; stroke-linejoin: miter; stroke-miterlimit: 10; fill: none; fill-rule: nonzero; opacity: 1;" transform="translate(-175.05 -175.05000000000004) scale(3.89 3.89)" >
	<path d="M 82.382 68.494 H 29.713 c -1.381 0 -2.5 -1.119 -2.5 -2.5 s 1.119 -2.5 2.5 -2.5 h 52.668 c 1.443 0 2.618 -1.174 2.618 -2.617 V 29.124 c 0 -1.444 -1.175 -2.618 -2.618 -2.618 H 13.419 c -1.381 0 -2.5 -1.119 -2.5 -2.5 s 1.119 -2.5 2.5 -2.5 h 68.963 c 4.2 0 7.618 3.417 7.618 7.618 v 31.753 C 90 65.077 86.582 68.494 82.382 68.494 z" style="stroke: none; stroke-width: 1; stroke-dasharray: none; stroke-linecap: butt; stroke-linejoin: miter; stroke-miterlimit: 10; fill: rgb(255,255,255); fill-rule: nonzero; opacity: 1;" transform=" matrix(1 0 0 1 0 0) " stroke-linecap="round" />
	<path d="M 68.314 45 l 10.717 -9.832 c 1.017 -0.934 1.085 -2.515 0.151 -3.532 c -0.932 -1.018 -2.514 -1.087 -3.532 -0.152 l -17.06 15.651 l -3.955 -3.561 c -0.056 -0.08 -0.105 -0.162 -0.171 -0.236 c -0.196 -0.221 -0.427 -0.389 -0.673 -0.523 L 42.713 32.84 c -1.027 -0.924 -2.607 -0.841 -3.531 0.185 c -0.924 1.026 -0.841 2.607 0.185 3.531 l 9.424 8.485 l -9.256 8.237 c -1.031 0.917 -1.124 2.498 -0.206 3.529 c 0.494 0.555 1.18 0.838 1.869 0.838 c 0.591 0 1.185 -0.208 1.661 -0.633 l 9.671 -8.605 l 4.404 3.965 c 0.476 0.428 1.074 0.642 1.673 0.642 c 0.606 0 1.212 -0.22 1.69 -0.658 l 4.319 -3.962 L 75.65 58.516 c 0.48 0.44 1.086 0.658 1.689 0.658 c 0.677 0 1.351 -0.272 1.843 -0.81 c 0.934 -1.018 0.865 -2.6 -0.151 -3.532 L 68.314 45 z" style="stroke: none; stroke-width: 1; stroke-dasharray: none; stroke-linecap: butt; stroke-linejoin: miter; stroke-miterlimit: 10; fill: rgb(255,255,255); fill-rule: nonzero; opacity: 1;" transform=" matrix(1 0 0 1 0 0) " stroke-linecap="round" />
	<path d="M 29.718 47.5 H 2.5 C 1.119 47.5 0 46.381 0 45 s 1.119 -2.5 2.5 -2.5 h 27.218 c 1.381 0 2.5 1.119 2.5 2.5 S 31.099 47.5 29.718 47.5 z" style="stroke: none; stroke-width: 1; stroke-dasharray: none; stroke-linecap: butt; stroke-linejoin: miter; stroke-miterlimit: 10; fill: rgb(255,255,255); fill-rule: nonzero; opacity: 1;" transform=" matrix(1 0 0 1 0 0) " stroke-linecap="round" />
	<path d="M 29.718 36.749 H 19.634 c -1.381 0 -2.5 -1.119 -2.5 -2.5 s 1.119 -2.5 2.5 -2.5 h 10.084 c 1.381 0 2.5 1.119 2.5 2.5 S 31.099 36.749 29.718 36.749 z" style="stroke: none; stroke-width: 1; stroke-dasharray: none; stroke-linecap: butt; stroke-linejoin: miter; stroke-miterlimit: 10; fill: rgb(255,255,255); fill-rule: nonzero; opacity: 1;" transform=" matrix(1 0 0 1 0 0) " stroke-linecap="round" />
	<path d="M 29.718 58.251 H 10.395 c -1.381 0 -2.5 -1.119 -2.5 -2.5 s 1.119 -2.5 2.5 -2.5 h 19.323 c 1.381 0 2.5 1.119 2.5 2.5 S 31.099 58.251 29.718 58.251 z" style="stroke: none; stroke-width: 1; stroke-dasharray: none; stroke-linecap: butt; stroke-linejoin: miter; stroke-miterlimit: 10; fill: rgb(255,255,255); fill-rule: nonzero; opacity: 1;" transform=" matrix(1 0 0 1 0 0) " stroke-linecap="round" />
</g>
</g>
</svg>